<svg width="1200" height="800" viewBox="0 0 1200 800" fill="none" xmlns="http://www.w3.org/2000/svg">
  <rect width="1200" height="800" rx="36" fill="#09111D"/>
  <rect x="38" y="38" width="1124" height="724" rx="28" fill="#111827" stroke="#1E293B" stroke-width="2"/>
  <rect x="82" y="84" width="1036" height="72" rx="24" fill="#0F172A"/>
  <circle cx="128" cy="120" r="10" fill="#3B82F6"/>
  <circle cx="160" cy="120" r="10" fill="#10B981"/>
  <circle cx="192" cy="120" r="10" fill="#94A3B8"/>
  <text x="230" y="130" fill="#E2E8F0" font-size="34" font-family="Inter, Arial, sans-serif" font-weight="700">Fortress Loans</text>
  <text x="230" y="162" fill="#94A3B8" font-size="22" font-family="Inter, Arial, sans-serif">Client-branded loan operations deployment</text>
  <rect x="82" y="190" width="420" height="520" rx="24" fill="#0F172A"/>
  <rect x="536" y="190" width="582" height="250" rx="24" fill="#0F172A"/>
  <rect x="536" y="460" width="582" height="250" rx="24" fill="#0F172A"/>
  <rect x="122" y="236" width="154" height="14" rx="7" fill="#3B82F6"/>
  <rect x="122" y="272" width="250" height="10" rx="5" fill="#64748B"/>
  <rect x="122" y="328" width="340" height="74" rx="18" fill="#111827" stroke="#1E293B"/>
  <rect x="122" y="424" width="340" height="74" rx="18" fill="#111827" stroke="#1E293B"/>
  <rect x="122" y="520" width="340" height="74" rx="18" fill="#111827" stroke="#1E293B"/>
  <rect x="122" y="628" width="220" height="34" rx="17" fill="#3B82F6" fill-opacity="0.16"/>
  <rect x="576" y="236" width="110" height="12" rx="6" fill="#64748B"/>
  <rect x="576" y="270" width="200" height="18" rx="9" fill="#E2E8F0"/>
  <rect x="576" y="324" width="492" height="12" rx="6" fill="#1E293B"/>
  <rect x="576" y="356" width="412" height="12" rx="6" fill="#1E293B"/>
  <rect x="576" y="388" width="448" height="12" rx="6" fill="#1E293B"/>
  <rect x="576" y="504" width="160" height="12" rx="6" fill="#64748B"/>
  <path d="M584 636H1070" stroke="#1E293B" stroke-width="2" stroke-linecap="round"/>
  <path d="M610 616C660 566 720 558 768 572C816 586 844 624 900 616C948 610 980 574 1028 552" stroke="#10B981" stroke-width="8" stroke-linecap="round"/>
  <circle cx="610" cy="616" r="9" fill="#10B981"/>
  <circle cx="768" cy="572" r="9" fill="#10B981"/>
  <circle cx="900" cy="616" r="9" fill="#10B981"/>
  <circle cx="1028" cy="552" r="9" fill="#10B981"/>
  <text x="576" y="702" fill="#3B82F6" font-size="30" font-family="Inter, Arial, sans-serif" font-weight="700">Configured for borrower records, repayments, and live operations</text>
</svg>
