<svg width="1200" height="800" viewBox="0 0 1200 800" fill="none" xmlns="http://www.w3.org/2000/svg">
  <rect width="1200" height="800" rx="36" fill="#08111A"/>
  <rect x="44" y="44" width="1112" height="712" rx="28" fill="#101C28" stroke="#1E293B" stroke-width="2"/>
  <rect x="96" y="106" width="278" height="590" rx="42" fill="#0A0F1E" stroke="#1E293B" stroke-width="3"/>
  <rect x="204" y="126" width="62" height="8" rx="4" fill="#1E293B"/>
  <rect x="126" y="160" width="218" height="498" rx="30" fill="#132231"/>
  <rect x="156" y="196" width="158" height="14" rx="7" fill="#E2E8F0"/>
  <rect x="156" y="230" width="110" height="10" rx="5" fill="#64748B"/>
  <circle cx="238" cy="382" r="112" fill="#0F172A" stroke="#1E293B" stroke-width="3"/>
  <path d="M170 430C198 378 216 354 260 330C290 312 322 308 350 312" stroke="#15803D" stroke-width="8" stroke-linecap="round"/>
  <circle cx="238" cy="382" r="14" fill="#15803D"/>
  <circle cx="286" cy="346" r="10" fill="#D97706"/>
  <circle cx="320" cy="330" r="10" fill="#16A34A"/>
  <rect x="156" y="534" width="158" height="18" rx="9" fill="#16A34A" fill-opacity="0.18"/>
  <rect x="420" y="132" width="680" height="108" rx="28" fill="#0F172A"/>
  <text x="464" y="186" fill="#E2E8F0" font-size="38" font-family="Inter, Arial, sans-serif" font-weight="700">FuelWatch Zambia</text>
  <text x="464" y="224" fill="#94A3B8" font-size="22" font-family="Inter, Arial, sans-serif">Community reporting, live station status, and mobile-first alerts</text>
  <rect x="420" y="280" width="320" height="184" rx="24" fill="#0F172A"/>
  <rect x="780" y="280" width="320" height="184" rx="24" fill="#0F172A"/>
  <rect x="420" y="500" width="680" height="184" rx="24" fill="#0F172A"/>
  <rect x="456" y="324" width="116" height="12" rx="6" fill="#64748B"/>
  <rect x="456" y="358" width="196" height="18" rx="9" fill="#E2E8F0"/>
  <rect x="816" y="324" width="118" height="12" rx="6" fill="#64748B"/>
  <rect x="816" y="358" width="184" height="18" rx="9" fill="#E2E8F0"/>
  <rect x="456" y="400" width="92" height="28" rx="14" fill="#16A34A" fill-opacity="0.18"/>
  <rect x="816" y="400" width="92" height="28" rx="14" fill="#D97706" fill-opacity="0.22"/>
  <rect x="458" y="540" width="604" height="14" rx="7" fill="#1E293B"/>
  <rect x="458" y="582" width="544" height="14" rx="7" fill="#1E293B"/>
  <rect x="458" y="624" width="580" height="14" rx="7" fill="#1E293B"/>
  <text x="458" y="674" fill="#16A34A" font-size="28" font-family="Inter, Arial, sans-serif" font-weight="700">Built for local mobility, reporting, and trust in live station data</text>
</svg>
